# xmcd CD database file
#
# Track frame offsets:
#	150
#	12967
#	25054
#	38143
#	53011
#	67760
#	81171
#	95641
#	111062
#	124584
#	138030
#	150667
#	165049
#	178823
#	193119
#	205947
#	217350
#	231520
#	245808
#	259451
#
# Disc length: 3635 seconds
#
# Revision: 0
# Processed by: cddbd v1.5.2PL0 Copyright (c) Steve Scherf et al.
# Submitted via: CDex 1.51
#
DISCID=160e3114
DTITLE=The Carter Family - Can The Circle Be Unbroken (disc1)
DYEAR=2006
DGENRE=Country
TTITLE0=Single Girl, Married Girl
TTITLE1=I will Never Marry
TTITLE2=Keep On The Sunny Side
TTITLE3=Little Darling Pal Of Mine
TTITLE4=Wildwood Flower
TTITLE5=John Hardy Was A Desperate Little Man
TTITLE6=My Clinch Mountain Home
TTITLE7=Diamonds In The Rough
TTITLE8=The Foggy Mountain Top
TTITLE9=Wabash Cannonball
TTITLE10=Storms Are On The Ocean
TTITLE11=On The Sea Of Galilee
TTITLE12=I'm Thinking Tonight Of My Blue Eyes
TTITLE13=Sweet Fern
TTITLE14=Lulu Walls
TTITLE15=Jimmy Brown The Newsboy
TTITLE16=Kitty Waltz
TTITLE17=You Are My Flower
TTITLE18=Longing For Old Virginia
TTITLE19=Are You Lonesome Tonight?
EXTD=YEAR: 2006
EXTT0=
EXTT1=
EXTT2=
EXTT3=
EXTT4=
EXTT5=
EXTT6=
EXTT7=
EXTT8=
EXTT9=
EXTT10=
EXTT11=
EXTT12=
EXTT13=
EXTT14=
EXTT15=
EXTT16=
EXTT17=
EXTT18=
EXTT19=
PLAYORDER=
